<?xml version="1.0" standalone="no"?>
<!DOCTYPE svg PUBLIC "-//W3C//DTD SVG 20010904//EN"
 "http://www.w3.org/TR/2001/REC-SVG-20010904/DTD/svg10.dtd">
<svg version="1.0" xmlns="http://www.w3.org/2000/svg"
 width="2736.000000pt" height="664.000000pt" viewBox="0 0 2736.000000 664.000000"
 preserveAspectRatio="xMidYMid meet">

<g transform="translate(0.000000,664.000000) scale(0.100000,-0.100000)"
fill="#000000" stroke="none">
<path d="M6600 5619 c-1104 -41 -2009 -114 -3000 -240 -634 -80 -1027 -142
-1300 -204 -107 -24 -294 -65 -415 -90 -283 -60 -526 -116 -1135 -264 -272
-66 -547 -132 -610 -146 -63 -14 -119 -30 -123 -34 -4 -4 21 -36 57 -70 453
-443 1619 -836 3344 -1126 1390 -235 3142 -409 4782 -476 359 -15 1134 -7
2035 20 1412 43 2444 54 2800 30 256 -16 323 -37 437 -131 142 -118 304 -428
394 -757 27 -99 30 -105 63 -118 24 -10 62 -14 124 -11 l89 3 42 46 c44 48 85
127 173 329 90 207 181 373 253 462 89 110 309 324 388 377 129 87 288 146
482 177 120 20 495 14 640 -11 282 -47 485 -132 743 -313 91 -63 138 -108 284
-266 212 -230 240 -256 274 -256 14 0 223 31 465 69 1079 171 1846 280 2374
336 391 42 1174 21 2055 -55 1687 -147 2890 -380 3264 -634 l53 -36 47 39
c181 152 602 637 903 1041 l86 115 36 220 c19 121 42 272 50 336 93 715 -7
1140 -327 1383 -288 218 -702 284 -1602 255 -231 -8 -608 -14 -838 -13 l-418
0 58 -23 c123 -50 260 -87 728 -199 894 -213 1307 -383 1589 -654 140 -134
211 -248 263 -417 23 -78 26 -105 27 -243 1 -114 -4 -177 -17 -240 -55 -257
-185 -533 -358 -762 -130 -170 -334 -358 -390 -358 -11 0 -72 16 -137 36 -157
47 -648 172 -903 228 -364 81 -583 113 -1144 166 -314 30 -466 47 -655 76
-120 18 -466 49 -725 66 -271 18 -1452 18 -1705 0 -631 -44 -1226 -115 -1720
-206 -306 -56 -797 -116 -955 -116 l-82 0 -99 101 c-172 176 -341 299 -560
408 -495 247 -1061 303 -1554 154 -143 -43 -347 -141 -465 -224 -53 -37 -149
-123 -234 -209 -223 -225 -308 -334 -416 -533 l-47 -87 -32 67 c-168 350 -444
555 -860 638 -247 49 -533 65 -1216 65 -1077 1 -2567 52 -3655 125 -2391 162
-3856 436 -4301 803 -76 63 -118 124 -133 194 -15 68 -6 93 42 121 277 161
1741 620 2829 887 289 70 577 130 631 130 26 0 37 4 37 15 0 13 -40 15 -302
13 -167 0 -395 -5 -508 -9z"/>
<path d="M7684 5453 c-42 -76 -132 -235 -199 -353 -190 -335 -731 -1292 -744
-1317 l-12 -23 210 0 209 0 105 198 105 197 583 0 583 0 107 -195 107 -195
236 -3 c130 -1 236 0 236 2 0 3 -113 202 -251 443 -138 241 -373 651 -521 911
l-271 472 -203 0 -203 0 -77 -137z m308 -295 c21 -40 62 -120 93 -178 149
-277 255 -479 255 -484 0 -3 -178 -6 -396 -6 -319 0 -395 2 -392 13 5 20 392
727 398 727 3 0 22 -33 42 -72z"/>
<path d="M9538 5568 c-2 -13 -2 -425 0 -915 l2 -893 205 0 205 0 0 345 0 345
203 0 203 0 279 -261 c154 -144 321 -299 371 -345 l91 -84 299 0 299 1 -35 32
c-20 17 -142 118 -270 223 -129 104 -301 244 -382 310 l-146 119 186 6 c103 3
207 11 232 18 101 29 162 79 202 166 23 49 23 57 23 385 0 331 0 336 -24 387
-33 73 -94 126 -178 155 l-68 23 -847 3 -846 3 -4 -23z m1514 -322 c42 -28 50
-72 46 -254 l-3 -164 -28 -23 c-15 -13 -44 -29 -65 -34 -23 -7 -224 -11 -544
-11 l-508 0 0 255 0 256 538 -3 c504 -3 539 -4 564 -22z"/>
<path d="M12100 4675 l0 -915 210 0 210 0 0 345 0 345 203 -1 202 0 368 -345
368 -344 302 0 c260 0 299 2 287 14 -14 13 -203 168 -649 530 l-174 141 189 6
c235 8 301 25 373 97 77 78 84 110 89 424 4 293 -4 381 -42 456 -36 70 -83
107 -177 138 -50 17 -116 19 -906 22 l-853 3 0 -916z m1500 577 c59 -29 70
-65 69 -232 0 -169 -9 -205 -59 -235 -34 -19 -52 -20 -562 -23 l-528 -3 0 256
0 255 523 0 c477 0 525 -2 557 -18z"/>
<path d="M14670 4834 c0 -642 2 -765 15 -822 31 -133 90 -196 217 -228 68 -18
121 -19 803 -19 649 0 736 2 788 17 85 24 143 62 173 113 59 101 58 81 61 923
l4 772 -210 0 c-194 0 -211 -1 -211 -17 0 -10 -1 -344 -3 -743 l-2 -725 -607
-3 -608 -2 0 745 0 745 -210 0 -210 0 0 -756z"/>
<path d="M17390 4675 l0 -915 210 0 210 0 0 360 0 359 658 3 c657 3 657 3 713
26 72 29 133 90 161 162 20 50 22 77 26 311 2 161 0 283 -7 328 -25 161 -99
234 -268 267 -61 11 -222 14 -889 14 l-814 0 0 -915z m1500 577 c58 -28 70
-67 69 -217 0 -145 -11 -188 -52 -219 -28 -21 -38 -21 -563 -24 l-534 -3 0
241 0 240 523 0 c477 0 525 -2 557 -18z"/>
<path d="M19750 4675 l0 -915 940 0 940 0 0 170 0 170 -730 0 -730 0 0 230 0
230 425 0 426 0 -2 155 -1 155 -424 0 -424 0 0 205 0 205 725 0 726 0 -3 153
-3 152 -932 3 -933 2 0 -915z"/>
<path d="M22625 5223 c-114 -203 -334 -591 -488 -863 -153 -272 -293 -519
-309 -548 l-30 -52 212 2 211 3 104 195 104 195 583 2 583 3 107 -198 106
-197 237 -3 c189 -2 236 0 232 10 -3 7 -237 418 -520 913 l-516 900 -204 3
-205 2 -207 -367z m593 -357 c105 -200 192 -366 192 -370 0 -3 -178 -6 -396
-6 -359 0 -396 1 -390 16 3 9 76 145 162 303 86 157 173 316 193 353 20 38 38
68 41 68 3 0 92 -164 198 -364z"/>
<path d="M5265 1346 c-59 -26 -60 -29 -63 -276 -4 -262 2 -290 62 -315 51 -22
501 -22 552 0 44 18 64 63 64 144 0 65 2 63 -70 76 -19 4 -43 9 -52 11 -16 5
-18 -3 -18 -60 l0 -66 -200 0 -200 0 0 195 0 195 200 0 200 0 0 -61 c0 -58 1
-61 23 -56 12 3 43 9 70 12 l47 7 0 54 c0 76 -21 121 -64 139 -48 20 -505 21
-551 1z"/>
<path d="M6170 1100 c0 -296 4 -320 64 -345 51 -22 521 -22 572 0 60 25 64 49
64 345 l0 260 -70 0 -70 0 0 -250 0 -250 -210 0 -210 0 0 250 0 250 -70 0 -70
0 0 -260z"/>
<path d="M7245 1346 c-59 -26 -60 -29 -63 -276 -4 -262 2 -290 62 -315 51 -22
501 -22 552 0 44 18 64 63 64 144 0 65 2 63 -70 76 -19 4 -43 9 -52 11 -16 5
-18 -3 -18 -60 l0 -66 -200 0 -200 0 0 195 0 195 200 0 200 0 0 -61 c0 -58 1
-61 23 -56 12 3 43 9 70 12 l47 7 0 54 c0 76 -21 121 -64 139 -48 20 -505 21
-551 1z"/>
<path d="M8150 1050 l0 -310 70 0 70 0 0 135 0 135 225 0 225 0 0 -135 0 -135
70 0 70 0 0 310 0 310 -70 0 -70 0 0 -120 0 -120 -225 0 -225 0 0 120 0 120
-70 0 -70 0 0 -310z"/>
<path d="M9210 1050 l0 -310 70 0 70 0 0 310 0 310 -70 0 -70 0 0 -310z"/>
<path d="M9670 1050 l0 -310 300 0 300 0 0 60 0 60 -230 0 -230 0 0 250 0 250
-70 0 -70 0 0 -310z"/>
<path d="M10490 1050 l0 -310 300 0 300 0 0 60 0 60 -230 0 -230 0 0 250 0
250 -70 0 -70 0 0 -310z"/>
<path d="M11310 1050 l0 -310 320 0 320 0 0 60 0 60 -250 0 -250 0 0 75 0 75
145 0 145 0 0 55 0 55 -145 0 -145 0 0 65 0 65 245 0 245 0 0 55 0 55 -315 0
-315 0 0 -310z"/>
<path d="M12220 1050 l0 -310 70 0 70 0 0 115 0 115 69 0 68 0 124 -115 124
-114 104 -1 c57 0 102 2 100 4 -2 2 -66 54 -143 115 l-138 111 63 0 c74 0 127
22 146 60 8 15 13 67 13 135 0 125 -9 152 -60 177 -31 16 -69 18 -322 18
l-288 0 0 -310z m518 188 c7 -7 12 -39 12 -75 0 -51 -3 -64 -19 -73 -12 -6
-93 -10 -195 -10 l-176 0 0 85 0 85 183 0 c129 0 187 -4 195 -12z"/>
<path d="M13180 1050 l0 -310 70 0 70 0 0 310 0 310 -70 0 -70 0 0 -310z"/>
<path d="M13709 1073 c-89 -159 -169 -298 -177 -310 l-14 -23 74 0 74 0 34 70
34 70 201 0 201 0 34 -70 34 -70 83 0 83 0 -27 48 c-16 26 -95 165 -178 309
l-150 262 -71 1 -72 0 -163 -287z m301 35 l62 -118 -136 0 -136 0 45 83 c26
45 56 101 68 125 11 23 24 39 28 35 3 -5 34 -61 69 -125z"/>
<path d="M15099 1073 c-89 -159 -169 -298 -177 -310 l-14 -23 74 0 74 0 34 70
34 70 201 0 201 0 34 -70 34 -70 83 0 83 0 -27 48 c-16 26 -95 165 -178 309
l-150 262 -71 1 -72 0 -163 -287z m301 35 l62 -118 -136 0 -136 0 45 83 c26
45 56 101 68 125 11 23 24 39 28 35 3 -5 34 -61 69 -125z"/>
<path d="M15960 1050 l0 -310 70 0 70 0 0 115 0 115 69 0 68 0 124 -115 124
-114 104 -1 c57 0 102 2 100 4 -2 2 -66 54 -143 115 l-138 111 63 0 c74 0 127
22 146 60 8 15 13 67 13 135 0 125 -9 152 -60 177 -31 16 -69 18 -322 18
l-288 0 0 -310z m518 188 c7 -7 12 -39 12 -75 0 -51 -3 -64 -19 -73 -12 -6
-93 -10 -195 -10 l-176 0 0 85 0 85 183 0 c129 0 187 -4 195 -12z"/>
<path d="M16780 1305 l0 -55 140 0 140 0 0 -255 0 -255 70 0 70 0 0 255 0 255
145 0 145 0 0 55 0 55 -355 0 -355 0 0 -55z"/>
<path d="M17670 1050 l0 -310 320 0 320 0 0 60 0 60 -250 0 -250 0 0 75 0 75
145 0 145 0 0 55 0 55 -145 0 -145 0 0 65 0 65 245 0 245 0 0 55 0 55 -315 0
-315 0 0 -310z"/>
<path d="M18652 1345 c-21 -9 -38 -27 -47 -49 -20 -47 -20 -185 0 -232 24 -58
52 -64 310 -64 l225 0 0 -70 0 -70 -220 0 -220 0 0 36 c0 32 -2 36 -22 31 -13
-4 -42 -9 -65 -13 -41 -6 -43 -8 -43 -41 0 -56 25 -102 64 -118 51 -22 521
-22 572 0 48 20 64 62 64 175 0 57 -5 104 -15 126 -24 58 -52 64 -310 64
l-225 0 0 65 0 65 205 0 205 0 0 -35 c0 -33 2 -35 28 -29 101 23 102 23 102
55 0 45 -27 89 -65 105 -49 20 -495 20 -543 -1z"/>
<path d="M19619 1073 c-89 -159 -169 -298 -177 -310 l-14 -23 74 0 74 0 34 70
34 70 201 0 201 0 34 -70 34 -70 83 0 83 0 -27 48 c-16 26 -95 165 -178 309
l-150 262 -71 1 -72 0 -163 -287z m301 35 l62 -118 -136 0 -136 0 45 83 c26
45 56 101 68 125 11 23 24 39 28 35 3 -5 34 -61 69 -125z"/>
<path d="M20480 1050 l0 -310 65 0 66 0 -3 213 -3 214 155 -131 c85 -72 199
-168 253 -213 94 -80 100 -83 147 -83 l50 0 0 310 0 310 -65 0 -66 0 3 -215 3
-214 -30 28 c-16 16 -130 112 -253 215 l-223 186 -50 0 -49 0 0 -310z"/>
<path d="M21589 1073 c-89 -159 -169 -298 -177 -310 l-14 -23 74 0 74 0 34 70
34 70 201 0 201 0 34 -70 34 -70 83 0 83 0 -27 48 c-16 26 -95 165 -178 309
l-150 262 -71 1 -72 0 -163 -287z m301 35 l62 -118 -136 0 -136 0 45 83 c26
45 56 101 68 125 11 23 24 39 28 35 3 -5 34 -61 69 -125z"/>
<path d="M22450 1050 l0 -310 300 0 300 0 0 60 0 60 -230 0 -230 0 0 250 0
250 -70 0 -70 0 0 -310z"/>
</g>
</svg>
